<?xml version="1.0" standalone="no"?>
<!DOCTYPE svg PUBLIC "-//W3C//DTD SVG 20010904//EN"
 "http://www.w3.org/TR/2001/REC-SVG-20010904/DTD/svg10.dtd">
<svg version="1.0" xmlns="http://www.w3.org/2000/svg"
 width="1300.000000pt" height="1300.000000pt" viewBox="0 0 1300.000000 1300.000000"
 preserveAspectRatio="xMidYMid meet">

<g transform="translate(0.000000,1300.000000) scale(0.100000,-0.100000)"
fill="#000000" stroke="none">
<path d="M7249 10352 c-51 -33 -78 -63 -328 -349 -74 -84 -132 -143 -145 -145
-12 -2 -19 -7 -16 -13 3 -5 9 -9 13 -7 5 1 6 -1 3 -6 -3 -5 37 -50 88 -101
l93 -92 38 43 39 42 161 -1 c172 -1 346 -15 490 -38 187 -31 445 -116 592
-195 20 -10 41 -16 46 -13 6 3 7 2 4 -4 -3 -5 8 -18 26 -28 57 -32 141 -97
205 -159 34 -34 66 -60 70 -58 4 1 7 -2 7 -7 0 -4 17 -28 39 -52 21 -24 35
-38 31 -30 -6 9 -4 12 4 7 6 -4 9 -11 6 -16 -7 -12 41 -82 68 -98 16 -10 17
-12 3 -8 -17 6 -16 4 3 -26 23 -34 84 -147 87 -160 1 -5 2 -13 3 -19 0 -5 6
-7 13 -3 8 5 9 2 5 -10 -6 -14 -3 -17 9 -12 13 5 14 4 6 -7 -8 -10 -7 -27 5
-65 9 -29 21 -52 25 -52 5 0 7 -4 4 -8 -3 -5 2 -33 10 -63 8 -30 17 -74 20
-99 3 -25 10 -63 15 -85 16 -71 29 -461 16 -495 -3 -8 -8 -49 -12 -90 -3 -41
-8 -88 -11 -105 -2 -16 -6 -42 -7 -57 -1 -15 -6 -30 -10 -34 -4 -4 -7 -20 -7
-35 0 -15 -4 -39 -10 -54 -11 -28 -19 -63 -27 -110 -2 -16 -11 -44 -19 -62 -8
-17 -13 -35 -12 -40 1 -4 -3 -17 -9 -29 -7 -11 -14 -32 -17 -45 -6 -29 -24
-81 -46 -134 -15 -34 -30 -76 -35 -95 -1 -3 -11 -25 -23 -50 -11 -24 -18 -49
-15 -55 4 -5 2 -7 -2 -2 -11 9 -37 -51 -28 -66 3 -5 1 -7 -5 -3 -5 3 -12 0
-14 -6 -4 -10 -98 -13 -434 -13 -622 0 -611 0 -1087 45 -119 12 -221 19 -226
15 -5 -3 -13 0 -16 5 -9 15 -47 -19 -38 -34 3 -6 2 -8 -2 -3 -5 4 -32 -16 -61
-44 -36 -36 -54 -47 -59 -38 -5 7 -4 10 2 6 5 -3 38 22 72 57 l62 63 -194 32
c-275 45 -608 122 -750 173 -32 11 -60 19 -62 17 -2 -3 56 -64 128 -137 l133
-132 134 -25 c230 -42 243 -44 330 -54 89 -11 299 -33 485 -50 328 -31 1083
-48 1398 -30 115 6 137 0 111 -35 -8 -11 -14 -15 -14 -10 0 6 3 14 8 20 4 5
-1 1 -10 -9 -9 -10 -14 -25 -11 -34 4 -10 2 -14 -3 -10 -11 6 -73 -93 -77
-124 -2 -10 -7 -22 -12 -26 -4 -5 -5 -2 -1 5 4 6 5 12 3 12 -2 0 -37 -51 -78
-112 -41 -62 -76 -115 -79 -118 -19 -17 -50 -71 -45 -79 3 -5 0 -13 -6 -17 -8
-4 -9 -3 -5 4 4 7 4 12 -1 11 -12 -1 -138 -167 -136 -179 2 -5 -1 -9 -6 -7
-12 3 -166 -164 -165 -180 1 -7 -2 -11 -6 -8 -5 3 -37 -23 -72 -57 -95 -95
-154 -147 -248 -223 -47 -37 -84 -72 -82 -77 1 -5 -2 -6 -9 -3 -6 4 -23 -4
-37 -18 -24 -22 -142 -104 -167 -117 -5 -3 -44 -27 -85 -54 -98 -65 -386 -211
-521 -264 -232 -92 -538 -184 -764 -229 -130 -26 -526 -26 -675 1 -237 41
-428 115 -604 232 -32 21 -68 44 -80 51 -37 20 -189 173 -258 258 -121 150
-247 328 -300 424 -11 20 -25 31 -39 31 -22 0 -206 -181 -554 -546 -225 -235
-415 -418 -467 -448 -35 -20 -38 -20 -55 -4 -16 17 -16 20 9 70 14 29 109 163
209 298 101 135 235 314 298 398 l114 154 -59 59 c-32 32 -61 59 -65 59 -3 0
-55 -66 -114 -147 -59 -82 -121 -166 -137 -188 -165 -225 -378 -547 -428 -647
-51 -102 -52 -138 -6 -184 31 -31 40 -34 90 -34 112 0 191 63 686 543 113 109
221 212 241 228 l37 29 58 -78 c71 -94 188 -228 263 -301 90 -86 202 -173 218
-167 8 3 11 1 8 -4 -6 -10 72 -63 161 -110 37 -20 56 -25 68 -18 20 11 66 -14
66 -37 0 -8 6 -16 13 -17 6 0 17 -2 22 -2 6 -1 22 -10 37 -20 41 -27 95 -15
101 22 4 25 4 25 6 -5 1 -26 -3 -32 -21 -35 -17 -3 -8 -9 35 -26 32 -12 71
-23 85 -24 15 0 49 -7 76 -14 27 -8 60 -11 73 -8 15 4 28 2 32 -5 23 -36 473
-46 736 -17 399 45 665 120 1130 319 354 150 815 405 815 450 0 6 3 8 6 4 22
-22 510 411 499 442 -4 10 -2 11 8 3 10 -8 16 -6 25 9 7 11 10 24 7 29 -3 6 0
7 8 4 19 -7 122 101 111 117 -3 5 1 7 8 4 7 -3 23 10 35 28 13 17 37 48 54 68
16 20 32 45 34 55 1 11 7 18 13 17 5 -1 16 4 22 12 7 8 9 15 4 15 -5 0 2 7 14
16 l22 15 -22 19 c-19 15 -21 21 -10 32 11 11 12 10 7 -4 -12 -30 24 -35 46
-7 40 51 137 196 154 228 9 19 25 43 35 53 9 10 26 36 36 56 11 20 25 43 32
50 15 16 16 26 2 17 -13 -8 -13 16 1 35 9 13 10 12 5 -2 -3 -10 -2 -18 2 -18
12 0 42 56 35 64 -3 3 -1 6 5 6 7 0 11 3 10 8 -1 4 5 19 15 33 19 28 34 31
267 46 47 3 93 9 103 15 9 5 22 6 28 2 6 -4 15 0 20 7 8 12 11 12 19 -1 7 -11
12 -12 21 -3 9 9 3 13 -25 18 -20 4 -43 5 -51 1 -18 -7 -45 3 -45 16 0 22 31
37 89 44 34 3 63 9 65 13 13 21 -315 1 -342 -21 -13 -11 -14 -11 -7 2 8 13 7
13 -10 0 -14 -11 -19 -12 -22 -2 -3 6 -11 12 -19 12 -16 0 -18 18 -4 40 5 9 5
19 -1 27 -6 6 -9 20 -6 30 4 14 5 13 6 -4 0 -13 5 -23 11 -23 5 0 6 7 3 17 -4
11 -3 14 5 9 8 -5 12 1 12 16 0 13 7 32 15 42 11 14 12 23 4 32 -6 7 -9 19 -6
26 4 8 6 7 6 -4 1 -10 6 -18 12 -18 6 0 9 6 6 14 -3 7 0 22 7 32 14 21 14 33
3 51 -6 9 -3 11 7 7 9 -3 17 0 19 7 2 8 12 39 22 69 27 85 28 87 6 50 -24 -42
-27 -34 -6 16 14 35 14 37 -12 65 -20 21 -30 25 -36 16 -6 -8 -7 -6 -3 6 6 18
5 18 -34 21 -31 2 -52 14 -44 27 3 5 10 7 15 4 19 -13 8 19 -15 40 -19 17 -27
20 -37 11 -11 -9 -11 -8 -1 5 10 14 9 18 -5 23 -10 4 -14 4 -10 0 9 -10 -13
-35 -25 -28 -5 3 -2 14 7 24 9 10 14 24 10 30 -6 9 -10 9 -17 -1 -8 -11 -9
-11 -5 1 3 13 12 15 48 11 5 0 8 -5 4 -10 -5 -8 69 -91 80 -91 3 0 2 8 -2 18
-3 9 -3 14 1 11 4 -4 9 -16 11 -29 5 -24 35 -51 48 -43 4 2 7 1 6 -4 -3 -18 2
-33 11 -33 5 0 7 7 4 15 -4 8 -1 15 6 15 6 0 9 -4 5 -9 -3 -5 -1 -12 5 -16 6
-4 8 -10 5 -15 -3 -5 -2 -11 3 -14 5 -3 14 11 21 31 12 31 11 37 -3 45 -9 5
-16 19 -16 31 0 23 -16 30 -120 54 -28 6 -15 9 65 13 61 3 103 1 107 -5 5 -6
8 -6 8 2 0 6 -4 15 -10 18 -5 3 -10 11 -10 17 0 7 5 6 14 -2 12 -9 15 -8 14 7
0 15 12 83 38 201 3 15 1 21 -6 17 -5 -3 -10 -16 -10 -27 0 -12 -3 -19 -6 -16
-3 3 -2 22 2 43 4 25 11 35 20 31 15 -6 20 33 16 136 -2 31 2 59 8 63 5 3 10
23 10 43 0 26 -3 33 -9 23 -9 -14 -8 45 3 254 3 43 1 74 -3 67 -4 -6 -7 26 -8
72 0 59 -6 94 -18 118 -10 18 -19 53 -21 78 -1 25 -5 56 -8 70 -3 14 -8 37
-12 53 -3 15 -10 27 -15 27 -6 0 -8 4 -5 9 8 13 -19 73 -29 64 -4 -5 -5 -2 -1
5 4 7 2 19 -4 27 -7 8 -10 15 -6 15 3 0 -12 36 -34 80 -26 51 -45 78 -52 74
-7 -4 -8 -3 -4 5 4 6 2 18 -4 27 -7 8 -21 29 -30 47 -10 17 -23 31 -29 30 -6
-2 -8 3 -5 10 5 15 -53 97 -69 97 -5 0 -8 3 -4 6 8 9 -16 33 -27 26 -5 -3 -6
0 -2 7 9 14 -122 153 -137 144 -6 -3 -7 -2 -4 4 4 5 -6 20 -21 33 -15 12 -38
32 -52 44 l-25 21 20 -25 c20 -25 20 -25 0 -9 -11 9 -30 15 -42 14 -12 -1 -20
2 -17 7 4 5 12 7 20 4 8 -3 14 -1 14 4 0 9 -103 90 -114 90 -3 0 -29 15 -58
34 -205 130 -474 216 -778 247 -119 12 -446 14 -541 3 l-64 -7 70 79 c38 43
80 90 92 103 12 13 20 27 17 32 -3 5 -2 8 3 7 4 -2 18 7 31 20 12 12 20 22 18
22 -2 0 9 14 25 31 49 53 33 96 -48 125 -66 23 -133 18 -184 -14z m1606 -838
c19 -16 19 -16 -5 -9 -31 9 -50 25 -29 25 7 0 23 -8 34 -16z m68 -68 c4 -10 1
-13 -9 -9 -15 6 -19 23 -5 23 5 0 11 -7 14 -14z m72 -65 c3 -5 2 -12 -3 -15
-5 -3 -9 1 -9 9 0 17 3 19 12 6z m176 -292 c-5 -13 -10 -19 -10 -12 -1 15 10
45 15 40 3 -2 0 -15 -5 -28z m-387 -27 c3 -5 -1 -9 -9 -9 -8 0 -12 4 -9 9 3 4
7 8 9 8 2 0 6 -4 9 -8z m54 -87 c-3 -3 -9 2 -12 12 -6 14 -5 15 5 6 7 -7 10
-15 7 -18z m397 -16 c0 -45 -30 -49 -31 -4 -1 36 4 47 19 42 7 -2 12 -19 12
-38z m95 -209 c0 -11 -4 -20 -9 -20 -5 0 -7 9 -4 20 3 11 7 20 9 20 2 0 4 -9
4 -20z m45 -180 c3 -5 1 -10 -4 -10 -6 0 -11 5 -11 10 0 6 2 10 4 10 3 0 8 -4
11 -10z m-348 -517 c-3 -10 -5 -2 -5 17 0 19 2 27 5 18 2 -10 2 -26 0 -35z
m280 -495 c-2 -13 -4 -5 -4 17 -1 22 1 32 4 23 2 -10 2 -28 0 -40z m33 32 c0
-5 -2 -10 -4 -10 -3 0 -8 5 -11 10 -3 6 -1 10 4 10 6 0 11 -4 11 -10z m-95
-150 c-3 -5 -16 -10 -28 -9 -20 1 -20 2 3 9 14 4 26 8 28 9 2 1 0 -3 -3 -9z
m5 -124 c0 -6 -4 -5 -9 2 -4 8 -12 12 -16 10 -5 -1 -9 5 -11 15 -2 18 -2 18
17 1 10 -9 19 -22 19 -28z m-26 -60 c-3 -15 -8 -25 -11 -23 -2 3 -1 17 3 31 3
15 8 25 11 23 2 -3 1 -17 -3 -31z m-394 -156 c-6 -11 -13 -20 -16 -20 -2 0 0
9 6 20 6 11 13 20 16 20 2 0 0 -9 -6 -20z m332 -55 c9 -20 9 -20 -6 -1 -11 13
-16 15 -16 6 0 -7 -2 -11 -5 -9 -2 3 -1 16 2 29 4 16 8 20 11 10 3 -8 9 -24
14 -35z m146 -202 c-10 -2 -26 -2 -35 0 -10 3 -2 5 17 5 19 0 27 -2 18 -5z
m-401 -315 c-3 -7 -5 -2 -5 12 0 14 2 19 5 13 2 -7 2 -19 0 -25z m-83 -118
c-6 -6 -10 -3 -10 10 0 13 4 16 10 10 7 -7 7 -13 0 -20z m-52 -112 c-7 -7 -12
-8 -12 -2 0 14 12 26 19 19 2 -3 -1 -11 -7 -17z m-4962 -823 c19 -19 32 -35
29 -35 -3 0 -20 16 -39 35 -19 19 -32 35 -29 35 3 0 20 -16 39 -35z m793 -420
c4 -8 1 -17 -5 -21 -7 -4 -8 -3 -4 4 4 7 2 12 -4 12 -6 0 -8 5 -5 10 8 14 12
13 18 -5z m-140 -132 c2 -5 -5 -17 -17 -28 -11 -11 -18 -16 -13 -10 18 23 4
26 -20 4 l-28 -24 20 25 c31 39 49 49 58 33z m288 -111 c13 -6 14 -9 5 -18
-10 -9 -16 -7 -24 7 -13 20 -8 22 19 11z m-167 -47 c-6 -16 -24 -21 -24 -7 0
11 11 22 21 22 5 0 6 -7 3 -15z m670 -11 c4 -9 4 -19 1 -22 -2 -3 -8 3 -11 12
-5 14 -9 15 -15 4 -7 -10 -9 -9 -9 5 0 22 26 22 34 1z m-614 2 c0 -2 -12 -11
-27 -20 l-28 -17 24 20 c23 21 31 25 31 17z m627 -68 c-3 -7 -5 -2 -5 12 0 14
2 19 5 13 2 -7 2 -19 0 -25z m-21 -19 c8 -14 -56 -77 -73 -72 -6 2 1 16 18 34
16 16 29 34 29 39 0 14 17 13 26 -1z m-166 -86 c0 -14 -2 -15 -9 -5 -10 17
-21 17 -31 2 -5 -8 -11 -6 -20 5 -11 13 -8 15 24 15 28 0 36 -4 36 -17z"/>
<path d="M9210 8980 c0 -5 5 -10 10 -10 6 0 10 5 10 10 0 6 -4 10 -10 10 -5 0
-10 -4 -10 -10z"/>
<path d="M9210 8940 c0 -5 5 -10 10 -10 6 0 10 5 10 10 0 6 -4 10 -10 10 -5 0
-10 -4 -10 -10z"/>
<path d="M6700 9837 c-163 -48 -446 -147 -579 -202 l-106 -45 -185 -186 c-182
-183 -184 -186 -110 -136 164 109 370 216 560 290 102 40 328 108 335 100 2
-2 -172 -206 -387 -453 -754 -869 -751 -866 -1026 -1210 -35 -44 -106 -133
-159 -198 l-95 -118 -36 42 c-109 126 -149 276 -119 441 10 54 11 80 3 88 -7
7 -6 10 5 10 16 1 48 64 54 107 2 15 2 22 -1 15 -3 -6 -11 -9 -17 -5 -18 11
-77 9 -77 -2 0 -7 -11 -22 -24 -34 -21 -20 -24 -20 -30 -5 -5 12 3 25 26 45
36 30 64 38 118 34 71 -5 68 46 -6 103 -46 36 -54 46 -48 65 9 30 35 58 47 50
5 -3 7 -2 4 4 -8 13 47 73 67 73 10 0 13 -6 10 -15 -4 -8 -1 -15 5 -15 6 0 11
5 11 10 0 20 21 9 30 -15 11 -28 22 -34 14 -7 -3 9 1 6 9 -7 8 -14 12 -32 9
-40 -12 -32 20 3 67 73 27 40 64 84 82 98 19 15 73 64 120 110 90 87 198 183
264 233 22 16 135 124 250 238 l210 209 -115 -57 c-98 -49 -307 -165 -385
-215 -350 -224 -694 -548 -871 -820 -42 -64 -84 -143 -84 -156 0 -2 9 -4 20
-4 26 0 60 -38 61 -69 l1 -26 8 25 c5 15 8 18 9 8 2 -25 -10 -49 -21 -42 -5 3
-12 -3 -15 -15 -8 -31 -18 -18 -21 26 -2 21 -7 40 -12 41 -6 2 -10 12 -10 23
0 10 -5 19 -11 19 -5 0 -7 -4 -4 -10 3 -5 -1 -10 -9 -10 -9 0 -15 -3 -14 -7 0
-5 -6 -24 -15 -43 -25 -58 -37 -150 -33 -255 8 -177 68 -311 207 -460 l60 -63
-148 -194 c-81 -106 -161 -211 -178 -232 -16 -21 -39 -51 -50 -66 -11 -15 -47
-63 -81 -106 -33 -44 -96 -126 -140 -183 -43 -57 -105 -138 -137 -180 -32 -42
-83 -107 -112 -146 -29 -38 -88 -116 -132 -172 -43 -56 -126 -164 -185 -241
l-106 -139 62 -62 63 -63 176 219 c97 120 258 317 359 439 101 122 247 299
326 395 79 96 151 183 160 194 10 11 38 45 62 75 25 30 61 73 80 95 19 22 53
62 75 90 22 27 54 65 71 84 l31 35 69 -41 c163 -96 390 -195 627 -272 126 -41
466 -131 496 -131 20 0 -246 266 -279 279 -229 88 -337 136 -463 204 -98 53
-252 151 -262 167 -3 5 79 108 182 227 103 120 229 265 278 322 50 58 128 148
175 201 47 53 110 125 140 160 158 182 232 268 405 464 130 148 262 299 372
426 17 19 74 84 126 144 53 60 93 114 90 119 -3 6 -2 7 4 4 6 -4 20 5 33 18
23 24 23 25 5 45 -10 11 -22 17 -28 13 -5 -3 -7 -2 -4 4 3 5 -33 48 -81 95
-87 85 -87 85 -122 75z m-1581 -941 c9 -10 2 -21 -32 -48 -47 -39 -58 -79 -31
-109 10 -12 13 -23 7 -33 -7 -14 -13 -12 -41 14 -18 16 -32 39 -32 52 0 29 74
110 93 102 8 -3 18 0 23 7 5 9 2 10 -9 6 -17 -6 -23 4 -10 16 10 10 19 8 32
-7z m-312 -435 c-1 -8 -13 -18 -26 -22 -20 -8 -23 -7 -18 10 2 10 1 25 -4 32
-7 11 -9 11 -9 1 0 -7 -6 -12 -12 -11 -32 4 -58 -2 -58 -13 -1 -20 -70 -93
-70 -74 0 9 5 16 10 16 7 0 7 8 -1 23 -6 12 -8 19 -4 15 4 -3 20 6 37 20 16
15 46 34 66 43 35 15 38 15 64 -5 15 -12 26 -27 25 -35z m-204 -56 c-3 -9 -8
-14 -10 -11 -3 3 -2 9 2 15 9 16 15 13 8 -4z m187 -181 c0 -8 -5 -12 -10 -9
-6 4 -8 11 -5 16 9 14 15 11 15 -7z m-225 -63 c-3 -6 -11 -11 -17 -11 -6 0 -6
6 2 15 14 17 26 13 15 -4z m175 4 c10 -12 10 -15 -4 -15 -9 0 -16 -5 -16 -10
0 -18 -73 -81 -81 -69 -3 6 -16 8 -27 5 -11 -4 -23 -2 -27 4 -3 6 -10 8 -15 5
-5 -3 -14 4 -20 16 -8 15 -9 19 -1 15 6 -4 11 0 12 11 0 14 2 15 6 3 19 -46
62 -53 92 -14 12 15 21 23 21 18 0 -5 5 -1 11 9 5 9 18 17 27 17 15 0 15 2 2
10 -8 5 -10 10 -4 10 6 0 17 -7 24 -15z m-236 -126 c-9 -16 -20 -10 -21 12 -2
17 1 18 12 9 8 -7 12 -16 9 -21z m56 -85 c0 -4 -11 3 -25 16 -14 13 -25 30
-25 38 0 7 11 0 25 -16 14 -17 25 -33 25 -38z m5 45 c11 -17 -1 -21 -15 -4 -8
9 -8 15 -2 15 6 0 14 -5 17 -11z"/>
<path d="M4895 8670 c16 -6 17 -8 4 -16 -9 -5 -26 -23 -39 -41 l-23 -32 29
-25 c34 -30 52 -32 61 -9 6 15 7 15 14 -3 6 -16 8 -15 8 9 1 24 10 32 34 28 4
0 7 4 7 9 0 6 -7 10 -16 10 -12 0 -15 7 -12 25 3 15 1 22 -5 18 -6 -4 -8 2 -5
13 4 16 -1 19 -36 20 -27 1 -34 -1 -21 -6z"/>
<path d="M4850 8406 c0 -2 7 -7 16 -10 8 -3 12 -2 9 4 -6 10 -25 14 -25 6z"/>
<path d="M4590 8266 c0 -14 5 -26 10 -26 6 0 10 9 10 19 0 11 -4 23 -10 26 -6
4 -10 -5 -10 -19z"/>
<path d="M10734 7660 c0 -10 6 -16 13 -13 7 3 13 9 13 13 0 4 -6 10 -13 13 -7
3 -13 -3 -13 -13z"/>
<path d="M10770 7621 c0 -6 4 -13 10 -16 6 -3 7 1 4 9 -7 18 -14 21 -14 7z"/>
<path d="M10801 7534 c0 -11 3 -14 6 -6 3 7 2 16 -1 19 -3 4 -6 -2 -5 -13z"/>
<path d="M9312 7468 c-14 -14 -16 -28 -3 -28 5 0 11 9 14 20 6 23 5 24 -11 8z"/>
<path d="M10860 7435 c0 -5 5 -17 10 -25 5 -8 10 -10 10 -5 0 6 -5 17 -10 25
-5 8 -10 11 -10 5z"/>
<path d="M9136 7421 c9 -9 34 -9 34 -1 0 5 -9 8 -20 7 -10 -1 -17 -3 -14 -6z"/>
<path d="M10737 7373 c-4 -3 -7 -11 -7 -17 0 -6 5 -5 12 2 6 6 9 14 7 17 -3 3
-9 2 -12 -2z"/>
<path d="M10891 7369 c-1 -9 7 -23 17 -30 15 -12 16 -12 6 1 -6 8 -14 22 -17
30 -5 13 -6 12 -6 -1z"/>
<path d="M10921 7299 c0 -15 6 -32 14 -39 8 -7 12 -17 8 -24 -4 -7 -1 -6 7 1
11 10 11 16 -2 30 -9 10 -18 27 -21 38 -4 16 -5 15 -6 -6z"/>
<path d="M10921 7214 c0 -11 3 -14 6 -6 3 7 2 16 -1 19 -3 4 -6 -2 -5 -13z"/>
<path d="M10941 7194 c-17 -14 -35 -23 -41 -19 -6 3 -7 0 -4 -9 8 -20 20 -20
28 -1 3 9 12 12 23 9 14 -4 15 -4 4 4 -10 7 -10 11 -1 17 7 4 16 1 21 -6 6
-10 9 -8 9 9 0 28 -2 28 -39 -4z"/>
<path d="M10185 7171 c6 -11 4 -13 -8 -8 -11 4 -17 1 -17 -9 0 -8 -4 -13 -9
-10 -5 4 -7 -4 -4 -15 6 -20 7 -20 18 -5 7 9 18 16 25 16 21 0 71 -41 64 -52
-4 -7 -2 -8 5 -4 6 4 20 2 29 -5 9 -7 -1 4 -23 25 -73 68 -89 81 -80 67z"/>
<path d="M10360 7131 c0 -7 -4 -10 -9 -6 -5 3 -12 1 -16 -5 -3 -5 1 -10 9 -10
17 0 31 18 22 27 -3 4 -6 1 -6 -6z"/>
<path d="M10846 7104 c-15 -14 -26 -27 -24 -30 3 -2 11 2 17 10 7 8 18 14 24
12 7 -1 8 -1 4 2 -4 2 -3 10 4 18 17 21 7 16 -25 -12z"/>
<path d="M10198 7027 c26 -51 42 -63 42 -31 0 8 -4 12 -10 9 -5 -3 -10 -2 -10
4 0 5 -3 17 -7 27 -4 11 -3 15 5 10 14 -8 26 10 16 26 -5 8 -11 6 -20 -7 -12
-16 -14 -17 -20 -2 -3 10 -10 17 -14 17 -5 0 3 -24 18 -53z"/>
<path d="M10663 7073 c-13 -2 -23 -9 -23 -14 0 -10 32 -4 60 12 13 7 13 8 0 7
-8 0 -25 -3 -37 -5z"/>
<path d="M10726 7071 c-4 -5 -2 -12 3 -15 5 -4 12 -2 15 3 4 5 2 12 -3 15 -5
4 -12 2 -15 -3z"/>
<path d="M10760 7060 c0 -5 5 -10 11 -10 5 0 7 5 4 10 -3 6 -8 10 -11 10 -2 0
-4 -4 -4 -10z"/>
<path d="M10381 7034 c0 -11 3 -14 6 -6 3 7 2 16 -1 19 -3 4 -6 -2 -5 -13z"/>
<path d="M10750 7003 c-31 -33 -34 -38 -10 -17 19 17 41 30 48 29 7 -2 8 -1 2
2 -8 3 -7 9 1 19 26 32 0 11 -41 -33z"/>
<path d="M11748 7033 c7 -3 16 -2 19 1 4 3 -2 6 -13 5 -11 0 -14 -3 -6 -6z"/>
<path d="M10730 7019 c0 -5 5 -7 10 -4 6 3 10 8 10 11 0 2 -4 4 -10 4 -5 0
-10 -5 -10 -11z"/>
<path d="M10468 7013 c7 -3 16 -2 19 1 4 3 -2 6 -13 5 -11 0 -14 -3 -6 -6z"/>
<path d="M10398 7003 c6 -2 18 -2 25 0 6 3 1 5 -13 5 -14 0 -19 -2 -12 -5z"/>
<path d="M10685 6989 c-11 -16 -1 -19 13 -3 7 8 8 14 3 14 -5 0 -13 -5 -16
-11z"/>
<path d="M11643 6983 c0 -8 6 -9 19 -2 10 5 18 11 18 12 0 2 -8 3 -18 3 -10 0
-19 -6 -19 -13z"/>
<path d="M10649 6943 c-13 -16 -12 -17 4 -4 9 7 17 15 17 17 0 8 -8 3 -21 -13z"/>
<path d="M10672 6930 c-7 -13 -8 -20 -2 -20 6 0 13 6 16 14 3 8 13 12 22 9 15
-4 15 -3 2 6 -20 15 -23 14 -38 -9z"/>
<path d="M10075 6920 c3 -5 11 -10 16 -10 6 0 7 5 4 10 -3 6 -11 10 -16 10 -6
0 -7 -4 -4 -10z"/>
<path d="M10260 6921 c0 -6 5 -13 10 -16 6 -3 10 1 10 9 0 9 -4 16 -10 16 -5
0 -10 -4 -10 -9z"/>
<path d="M9882 6909 c-13 -5 -33 -7 -45 -5 -12 1 -16 1 -9 -1 7 -3 10 -9 7
-14 -8 -12 18 -12 31 1 5 5 27 14 49 19 27 6 32 9 15 9 -14 1 -35 -3 -48 -9z"/>
<path d="M11345 6910 c-3 -5 -2 -10 4 -10 5 0 13 5 16 10 3 6 2 10 -4 10 -5 0
-13 -4 -16 -10z"/>
<path d="M10611 6901 c-11 -7 -11 -9 0 -13 7 -2 9 -9 5 -16 -5 -8 -16 -10 -28
-6 -17 5 -20 3 -14 -11 3 -10 1 -25 -6 -34 -7 -9 1 -4 17 10 17 15 35 25 41
22 7 -2 12 7 12 22 0 29 -8 37 -27 26z"/>
<path d="M9630 6892 c-43 -3 -84 -22 -47 -22 9 0 17 -4 17 -9 0 -5 15 -16 33
-25 17 -8 25 -16 16 -16 -20 0 -82 21 -89 31 -3 3 -23 3 -45 -1 -22 -4 -31 -8
-20 -9 15 -1 17 -3 7 -10 -19 -12 15 -45 37 -36 9 4 21 8 26 9 6 1 15 5 22 9
13 8 61 -1 79 -14 9 -7 83 -4 91 4 1 2 -20 9 -47 16 -59 15 -66 34 -12 30 32
-2 102 23 102 36 0 3 -13 4 -29 3 -16 -1 -27 -7 -25 -13 3 -7 -12 -12 -38 -14
-23 -1 -48 -7 -55 -13 -8 -7 -13 -7 -13 0 0 12 23 22 58 23 17 1 21 3 9 6 -9
2 -15 8 -13 12 3 4 0 7 -7 7 -7 -1 -32 -2 -57 -4z m57 -78 c-3 -3 -12 -4 -19
-1 -8 3 -5 6 6 6 11 1 17 -2 13 -5z"/>
<path d="M10115 6880 c-3 -5 -15 -10 -26 -10 -11 0 -17 -4 -14 -10 3 -5 10
-10 14 -10 14 0 57 39 44 40 -6 0 -15 -4 -18 -10z"/>
<path d="M9781 6841 c-10 -17 -10 -26 -1 -35 8 -8 9 -6 4 9 -6 19 -6 19 11 4
13 -13 24 -15 51 -8 18 6 56 11 84 12 82 3 57 15 -29 14 -44 -1 -77 -5 -75 -9
2 -4 0 -9 -5 -12 -5 -4 -13 6 -18 21 l-10 28 -12 -24z"/>
<path d="M11036 6843 c-6 -14 -5 -15 5 -6 7 7 10 15 7 18 -3 3 -9 -2 -12 -12z"/>
<path d="M10207 6833 c-4 -3 -7 -11 -7 -17 0 -6 5 -4 11 4 9 13 10 13 6 0 -2
-8 -12 -14 -21 -14 -9 1 -16 -2 -16 -7 0 -11 39 -7 59 5 10 6 12 5 7 -2 -11
-18 10 -14 24 3 18 21 -2 44 -23 27 -9 -8 -17 -8 -23 -2 -6 6 -13 7 -17 3z
m63 -13 c0 -5 -4 -10 -10 -10 -5 0 -10 5 -10 10 0 6 5 10 10 10 6 0 10 -4 10
-10z"/>
<path d="M10414 6828 c9 -5 23 -5 32 0 12 6 7 9 -16 9 -23 0 -28 -3 -16 -9z"/>
<path d="M10484 6831 c4 -5 1 -12 -4 -14 -6 -3 -5 -4 2 -3 15 3 23 26 8 26 -6
0 -9 -4 -6 -9z"/>
<path d="M10520 6825 c-11 -13 -10 -14 4 -9 9 3 16 10 16 15 0 13 -6 11 -20
-6z"/>
<path d="M11003 6825 c0 -8 4 -12 9 -9 5 3 6 10 3 15 -9 13 -12 11 -12 -6z"/>
<path d="M9594 6801 c4 -5 0 -11 -6 -14 -7 -2 2 -4 19 -3 35 1 43 10 17 20
-23 9 -36 7 -30 -3z"/>
<path d="M10963 6785 c0 -8 4 -12 9 -9 5 3 6 10 3 15 -9 13 -12 11 -12 -6z"/>
<path d="M10220 6780 c-8 -5 -12 -11 -9 -14 2 -3 11 -1 19 4 8 5 12 11 9 14
-2 3 -11 1 -19 -4z"/>
<path d="M10147 6762 c-10 -10 -17 -24 -17 -31 0 -7 -4 -10 -9 -6 -12 7 -53
-44 -45 -56 7 -12 43 12 50 34 3 10 11 16 18 14 6 -3 23 4 36 15 23 19 23 20
3 14 -18 -6 -20 -4 -16 14 7 25 1 25 -20 2z m10 -24 c2 -17 0 -19 -7 -8 -5 8
-6 18 -4 22 8 12 10 10 11 -14z m-37 -22 c0 -2 -8 -10 -17 -17 -16 -13 -17
-12 -4 4 13 16 21 21 21 13z"/>
<path d="M10640 6733 c-19 -20 -29 -34 -22 -29 7 4 12 2 13 -6 0 -7 5 -1 11
15 5 15 13 27 18 27 4 0 10 7 14 15 8 22 4 19 -34 -22z"/>
<path d="M10590 6675 c-7 -9 -10 -18 -7 -21 3 -3 10 4 17 15 13 25 8 27 -10 6z"/>
<path d="M10039 6643 c-13 -17 -13 -17 6 -3 11 8 22 16 24 17 2 2 0 3 -6 3 -6
0 -17 -8 -24 -17z"/>
<path d="M10604 6620 c0 -9 7 -16 16 -16 9 0 16 7 16 16 0 9 -7 16 -16 16 -9
0 -16 -7 -16 -16z"/>
<path d="M10805 6630 c-3 -6 1 -7 9 -4 18 7 21 14 7 14 -6 0 -13 -4 -16 -10z"/>
<path d="M10539 6613 c-13 -16 -12 -17 4 -4 9 7 17 15 17 17 0 8 -8 3 -21 -13z"/>
<path d="M10760 6589 c0 -5 5 -7 10 -4 6 3 10 8 10 11 0 2 -4 4 -10 4 -5 0
-10 -5 -10 -11z"/>
<path d="M10490 6555 c-25 -26 -25 -27 36 -29 22 -1 30 3 27 11 -5 12 -18 17
-37 14 -5 -1 -6 5 -3 14 9 21 4 19 -23 -10z m20 -15 c0 -5 -4 -10 -10 -10 -5
0 -10 5 -10 10 0 6 5 10 10 10 6 0 10 -4 10 -10z"/>
<path d="M10418 6475 c-26 -34 -22 -40 7 -11 16 16 31 23 43 19 9 -3 14 -3 11
1 -15 17 -45 12 -61 -9z"/>
<path d="M10641 6488 c-1 -10 -4 -18 -9 -18 -4 0 -19 -11 -34 -24 -14 -14 -29
-23 -32 -20 -3 2 -4 1 -1 -3 3 -3 -1 -13 -7 -22 -7 -9 -2 -7 11 4 65 54 83 74
78 87 -4 9 -6 7 -6 -4z"/>
<path d="M10342 6387 c-17 -18 -19 -24 -8 -24 8 0 13 4 10 8 -2 4 4 12 13 18
10 5 15 12 12 15 -3 3 -15 -5 -27 -17z"/>
<path d="M10484 6363 c-1 -33 -1 -34 20 -16 11 10 23 20 26 22 3 2 -6 0 -19
-4 -21 -6 -22 -5 -10 8 8 8 21 12 29 9 9 -3 11 -1 7 4 -5 5 -18 9 -30 9 -18 1
-22 -5 -23 -32z"/>
<path d="M10361 6371 c0 -8 -7 -22 -15 -30 -13 -14 -11 -16 21 -18 29 -1 32 0
20 10 -8 7 -17 21 -20 32 -3 11 -5 14 -6 6z"/>
<path d="M10321 6303 c13 -15 35 -17 43 -4 3 5 -8 11 -24 13 -24 4 -27 2 -19
-9z"/>
<path d="M10403 6309 c-13 -4 -23 -14 -23 -21 0 -10 2 -10 9 1 5 7 21 14 35
14 15 0 28 3 30 6 7 10 -26 10 -51 0z"/>
<path d="M10280 6301 c0 -7 -5 -9 -12 -5 -7 5 -8 3 -3 -5 5 -9 10 -10 18 -2 6
6 8 14 4 18 -4 3 -7 1 -7 -6z"/>
<path d="M10396 6275 c-11 -8 -15 -15 -9 -15 6 0 16 7 23 15 16 19 11 19 -14
0z"/>
<path d="M10331 6267 c-7 -7 -7 -15 0 -23 8 -10 5 -15 -15 -20 -25 -6 -37 -24
-16 -24 20 0 47 33 43 51 -4 15 -1 18 11 13 9 -3 16 -2 16 3 0 13 -27 12 -39
0z"/>
<path d="M10225 6250 c-3 -5 -3 -15 1 -22 5 -7 2 -9 -8 -6 -8 4 -20 -2 -26
-13 -7 -10 -9 -19 -5 -20 5 -1 24 -2 43 -4 32 -3 33 -2 15 11 -17 13 -18 16
-5 24 8 5 23 10 32 10 20 0 32 16 18 25 -5 3 -22 -2 -37 -12 -26 -16 -27 -16
-14 0 8 10 9 17 3 17 -6 0 -14 -4 -17 -10z"/>
<path d="M4617 4713 c-4 -3 5 -12 19 -20 36 -18 40 -16 19 7 -19 21 -28 24
-38 13z"/>
<path d="M3146 3544 c-14 -13 -16 -48 -16 -227 l0 -211 50 49 c28 27 50 55 50
62 0 7 6 13 13 13 7 0 31 18 52 40 l39 40 -52 0 -52 0 0 80 0 80 54 0 c65 0
103 -25 108 -71 l3 -30 49 50 50 50 -36 34 c-46 43 -95 57 -206 57 -69 0 -94
-4 -106 -16z"/>
<path d="M3692 3548 c-15 -15 -17 -396 -1 -451 25 -90 114 -147 231 -147 90 1
157 33 203 98 l30 44 3 219 c3 160 0 224 -9 235 -17 21 -66 18 -79 -5 -6 -12
-10 -96 -10 -202 0 -163 -2 -187 -20 -225 -45 -92 -194 -94 -241 -3 -17 34
-19 60 -19 218 0 203 -6 231 -48 231 -15 0 -33 -5 -40 -12z"/>
<path d="M4410 3545 c-81 -37 -119 -106 -101 -185 12 -56 35 -75 144 -121 51
-22 100 -49 110 -60 26 -32 22 -76 -12 -110 -36 -36 -78 -38 -153 -8 -65 25
-98 16 -98 -30 0 -25 7 -33 48 -52 31 -16 70 -25 117 -27 62 -3 77 0 124 25
88 46 123 140 87 227 -17 40 -62 75 -136 105 -126 51 -149 76 -116 126 27 42
57 43 177 8 20 -6 49 22 49 47 0 10 -15 29 -32 42 -42 30 -155 36 -208 13z"/>
<path d="M4830 3541 c-6 -12 -10 -122 -10 -286 0 -164 4 -274 10 -286 12 -22
59 -26 78 -7 16 16 17 550 2 579 -7 12 -21 19 -40 19 -19 0 -33 -7 -40 -19z"/>
<path d="M5100 3535 c-6 -15 -10 -136 -10 -283 0 -278 4 -302 54 -302 43 0 46
13 46 216 0 106 4 195 8 198 5 3 43 -43 85 -102 210 -293 221 -307 252 -310
53 -6 55 5 55 301 0 166 -4 276 -10 288 -12 22 -59 26 -78 7 -9 -9 -12 -69
-12 -210 0 -125 -4 -198 -10 -198 -5 0 -10 4 -10 10 0 9 -79 118 -230 319 -56
73 -70 86 -98 89 -27 3 -34 -1 -42 -23z"/>
<path d="M5777 3542 c-15 -16 -17 -51 -17 -290 0 -326 -12 -302 148 -302 114
0 172 17 172 50 0 40 -26 50 -126 50 l-94 0 0 85 0 85 84 0 c64 0 88 4 100 16
30 29 13 74 -28 74 -18 0 -17 -3 10 -32 l29 -33 -35 33 c-33 29 -42 32 -98 32
l-62 0 0 62 c0 61 -1 64 -47 113 l-48 50 45 -40 45 -40 98 5 c83 4 101 8 113
24 19 26 18 32 -8 56 -19 18 -35 20 -143 20 -105 0 -124 -2 -138 -18z"/>
<path d="M6290 3538 c-62 -31 -90 -77 -90 -144 0 -72 34 -110 127 -147 90 -36
131 -62 145 -92 22 -50 -31 -115 -95 -115 -13 0 -49 9 -80 19 -65 23 -95 18
-103 -16 -8 -32 16 -58 74 -77 77 -27 80 -20 17 47 l-60 62 67 -64 c64 -62 68
-64 110 -59 103 12 168 72 176 163 9 105 -24 144 -170 204 -86 36 -100 49
-100 88 0 49 77 82 130 54 42 -21 72 -21 92 -1 17 17 18 24 10 41 -33 61 -164
80 -250 37z"/>
<path d="M6785 3542 c-65 -31 -88 -63 -93 -132 -7 -92 13 -117 142 -172 l104
-45 39 36 38 36 -39 -41 c-23 -26 -34 -44 -27 -48 14 -9 14 -71 1 -95 -14 -27
-65 -44 -107 -38 -34 6 -42 2 -78 -31 l-40 -37 33 35 c17 20 32 39 32 42 0 4
-16 12 -35 18 -43 14 -75 0 -75 -34 0 -29 25 -52 79 -71 152 -53 311 33 311
168 0 94 -38 133 -180 187 -52 20 -100 58 -100 81 0 29 44 69 77 69 15 0 50
-7 76 -15 36 -11 54 -12 69 -4 27 15 20 57 -15 83 -40 30 -157 34 -212 8z"/>
<path d="M3376 3340 l-110 -110 56 0 c50 0 59 -3 82 -31 27 -32 34 -76 16
-110 -17 -31 -64 -49 -130 -49 l-60 0 0 77 0 77 -50 -49 c-48 -48 -50 -51 -50
-106 0 -40 5 -60 17 -70 22 -19 163 -24 232 -9 107 24 151 74 151 172 0 66
-26 112 -73 129 l-35 12 25 20 c14 11 32 35 39 53 15 35 19 104 7 104 -5 0
-57 -50 -117 -110z"/>
</g>
</svg>
